<?xml version="1.0" standalone="no"?>
<!DOCTYPE svg PUBLIC "-//W3C//DTD SVG 20010904//EN"
 "http://www.w3.org/TR/2001/REC-SVG-20010904/DTD/svg10.dtd">
<svg version="1.0" xmlns="http://www.w3.org/2000/svg"
 width="468.000000pt" height="160.000000pt" viewBox="0 0 468.000000 160.000000"
 preserveAspectRatio="xMidYMid meet">

<g transform="translate(0.000000,160.000000) scale(0.100000,-0.100000)"
fill="#000000" stroke="none">
<path d="M402 1535 c-90 -20 -147 -52 -206 -116 -59 -64 -85 -128 -93 -229 -6
-78 21 -161 70 -217 80 -91 237 -100 237 -14 0 22 -3 23 -50 16 -123 -17 -203
101 -180 266 14 96 69 163 174 209 73 33 142 36 223 12 83 -26 137 -69 178
-143 28 -50 30 -62 30 -154 0 -89 -3 -107 -28 -160 -16 -33 -40 -73 -55 -88
-34 -37 -97 -69 -125 -65 -21 3 -22 7 -25 172 -1 104 -7 175 -13 183 -14 17
-58 17 -61 1 -1 -7 -3 -171 -3 -363 l0 -350 -32 -65 c-41 -84 -95 -120 -180
-120 -84 0 -133 36 -161 117 -34 101 92 200 163 128 14 -13 25 -31 25 -39 0
-23 17 -28 34 -10 21 21 20 77 -1 103 -29 33 -100 47 -158 30 -94 -28 -143
-103 -132 -207 12 -115 102 -187 232 -187 112 1 186 50 250 166 28 51 30 62
35 203 l5 150 47 12 c92 23 182 103 234 209 27 55 29 69 29 165 -1 140 -24
201 -109 286 -50 50 -73 65 -126 82 -89 29 -154 33 -228 17z"/>
<path d="M2275 1470 c-16 -18 -17 -21 -1 -45 18 -28 27 -30 44 -13 18 18 14
56 -7 67 -14 8 -23 6 -36 -9z"/>
<path d="M2674 1446 c-12 -9 -26 -28 -32 -43 -7 -17 -12 -168 -15 -395 -4
-394 -3 -403 47 -453 32 -32 104 -35 129 -7 26 29 20 40 -23 47 -74 12 -73 5
-67 432 3 208 7 389 9 403 4 30 -18 37 -48 16z"/>
<path d="M1859 1393 c-10 -11 -15 -55 -17 -147 -3 -85 -8 -133 -15 -138 -7 -4
-33 -8 -58 -8 -32 0 -49 -5 -53 -15 -9 -26 22 -45 74 -45 l49 0 3 -202 c4
-226 10 -254 72 -296 40 -27 81 -28 124 -2 24 15 32 27 30 43 -3 23 -28 27
-74 12 -13 -4 -29 0 -45 13 -24 20 -24 23 -29 217 -3 118 -1 200 5 206 5 5 30
9 56 9 62 0 111 18 107 39 -3 13 -19 17 -86 19 l-82 3 -1 32 c-1 18 -1 78 1
133 1 56 -1 111 -5 123 -8 25 -37 28 -56 4z"/>
<path d="M3775 1335 c-29 -28 -31 -46 -9 -80 11 -17 26 -25 44 -25 61 0 82 71
34 109 -34 27 -40 26 -69 -4z"/>
<path d="M2275 1320 c-15 -17 -16 -24 -7 -45 7 -14 19 -28 27 -31 40 -16 64
65 26 86 -26 13 -25 13 -46 -10z"/>
<path d="M1003 1066 c-48 -17 -93 -54 -93 -75 0 -30 24 -31 73 -5 57 30 115
31 150 3 29 -22 51 -81 45 -119 -3 -24 -7 -25 -98 -33 -108 -9 -140 -23 -187
-86 -40 -51 -41 -78 -7 -141 55 -101 179 -121 264 -43 l26 23 33 -35 c28 -30
39 -35 77 -35 38 0 50 5 73 31 20 21 31 27 36 19 13 -22 89 -50 135 -50 57 0
118 28 153 69 37 44 38 113 2 162 -32 43 -55 61 -126 100 -37 20 -63 42 -75
65 -17 31 -17 37 -4 62 13 22 24 28 62 30 41 3 48 0 68 -27 25 -36 55 -40 70
-10 15 28 -8 62 -60 89 -117 60 -260 -32 -228 -146 12 -44 55 -89 125 -129 96
-55 113 -72 113 -114 0 -70 -81 -112 -149 -76 -31 15 -32 19 -26 56 6 32 4 39
-10 39 -28 0 -71 -28 -83 -54 -17 -37 -56 -60 -81 -47 -18 10 -20 23 -23 194
l-3 184 -29 37 c-49 65 -143 91 -223 62z m177 -342 c0 -59 -11 -78 -64 -109
-45 -26 -94 -32 -127 -15 -22 12 -49 60 -49 88 0 44 80 81 178 82 l62 0 0 -46z"/>
<path d="M2240 1063 c-46 -19 -97 -68 -123 -118 -26 -51 -35 -185 -16 -253 19
-69 97 -145 166 -161 94 -23 215 23 244 92 14 33 -2 59 -25 42 -107 -81 -159
-93 -231 -52 -44 25 -78 83 -73 125 3 25 5 26 71 23 85 -3 166 20 212 60 29
26 35 38 35 70 0 129 -142 223 -260 172z m148 -84 c45 -44 44 -89 -1 -123 -30
-23 -43 -26 -120 -26 l-87 0 0 50 c0 45 4 54 40 90 36 36 45 40 88 40 40 0 53
-5 80 -31z"/>
<path d="M2975 1052 c-98 -53 -144 -156 -131 -290 14 -132 89 -219 205 -238
92 -15 220 51 221 113 0 34 -18 37 -53 7 -73 -62 -139 -69 -211 -24 -48 31
-76 76 -76 122 0 22 3 23 103 23 162 0 237 40 237 127 0 48 -11 72 -59 121
-68 72 -149 85 -236 39z m170 -73 c44 -39 48 -83 9 -120 -24 -22 -33 -24 -127
-24 l-102 0 3 39 c4 52 20 80 62 111 50 37 108 35 155 -6z"/>
<path d="M3310 1065 c-22 -27 -7 -49 40 -61 l45 -11 0 -199 0 -199 -35 -11
c-23 -8 -35 -18 -35 -30 0 -16 9 -19 63 -22 38 -2 69 2 78 9 11 9 14 48 14
191 0 191 4 210 53 256 13 13 37 24 53 25 26 2 29 -1 32 -30 5 -48 35 -61 67
-29 34 34 32 53 -11 92 -54 51 -107 44 -173 -25 l-25 -24 -8 29 c-4 16 -15 35
-25 41 -24 18 -117 17 -133 -2z"/>
<path d="M3788 1073 c-42 -5 -43 -7 -23 -43 11 -19 14 -70 15 -221 0 -113 5
-209 11 -227 22 -63 99 -82 146 -36 30 30 23 42 -32 46 l-40 3 -5 240 c-6 264
0 246 -72 238z"/>
<path d="M4095 1063 c-45 -16 -75 -40 -75 -60 0 -23 29 -26 70 -8 44 20 130
22 159 3 27 -17 40 -45 43 -98 l3 -45 -45 -2 c-84 -5 -165 -25 -195 -48 -75
-57 -85 -71 -85 -123 0 -67 39 -120 110 -151 63 -27 97 -23 163 19 l47 29 20
-40 c24 -46 99 -99 142 -99 76 0 158 72 158 139 0 63 -76 123 -115 91 -20 -17
-19 -33 5 -50 13 -9 20 -26 20 -46 0 -25 -7 -34 -34 -49 -32 -17 -36 -18 -60
-2 -46 31 -51 50 -56 257 -5 185 -6 197 -29 228 -45 64 -154 88 -246 55z m195
-298 c17 -20 5 -98 -18 -117 -33 -27 -100 -58 -126 -58 -14 0 -41 14 -61 31
-73 65 -21 130 117 148 35 5 66 9 69 10 4 0 12 -6 19 -14z"/>
<path d="M1905 313 c-79 -20 -71 -110 11 -132 16 -4 31 -16 32 -26 4 -15 -1
-17 -40 -11 -33 5 -48 3 -57 -7 -16 -21 27 -47 78 -47 31 0 44 6 60 26 39 49
23 86 -46 114 -18 7 -33 16 -33 21 0 15 20 20 39 9 37 -19 69 13 38 38 -16 14
-57 21 -82 15z"/>
<path d="M3570 313 c-32 -12 -50 -37 -50 -69 0 -28 5 -35 45 -54 25 -12 47
-26 51 -31 9 -16 -26 -22 -51 -9 -43 23 -63 -16 -23 -44 33 -24 81 -20 112 9
44 41 33 77 -35 110 -49 24 -52 41 -5 37 20 -1 38 3 46 13 11 13 7 17 -23 30
-39 16 -44 17 -67 8z"/>
<path d="M987 303 c-9 -8 -9 -176 -1 -197 3 -9 15 -16 25 -16 16 0 19 8 19 44
0 56 17 68 45 32 l22 -27 24 25 c13 14 27 26 32 26 4 0 7 -22 7 -50 0 -43 3
-50 20 -50 26 0 32 26 28 130 -3 76 -5 85 -23 88 -14 2 -25 -7 -38 -30 -10
-19 -26 -39 -37 -46 -16 -10 -22 -7 -42 21 -35 50 -64 68 -81 50z"/>
<path d="M1322 203 c3 -103 4 -108 26 -111 22 -3 22 -2 22 107 l0 111 -25 0
-26 0 3 -107z"/>
<path d="M1490 200 l0 -110 70 0 c57 0 71 3 79 19 13 24 5 31 -35 31 -61 0
-64 5 -64 91 0 78 0 79 -25 79 l-25 0 0 -110z"/>
<path d="M2135 218 c-25 -50 -45 -100 -45 -110 0 -25 37 -23 45 2 5 16 15 20
55 20 39 0 52 -4 60 -20 10 -20 54 -28 64 -12 2 4 -18 53 -46 110 -65 133 -73
134 -133 10z m79 -14 c8 -20 -1 -34 -20 -34 -8 0 -14 10 -14 25 0 28 24 34 34
9z"/>
<path d="M2400 200 l0 -110 61 0 c46 0 68 5 90 21 33 23 35 38 14 79 -9 18
-11 31 -5 35 17 11 11 43 -12 65 -17 16 -35 20 -85 20 l-63 0 0 -110z m110 50
c0 -13 -38 -32 -50 -25 -22 14 -10 35 20 35 17 0 30 -4 30 -10z m10 -90 c0
-16 -7 -20 -35 -20 -22 0 -35 5 -35 13 0 20 10 27 42 27 21 0 28 -5 28 -20z"/>
<path d="M2696 276 c-29 -27 -36 -41 -36 -72 0 -94 103 -145 187 -93 64 39 72
112 19 165 -30 30 -40 34 -84 34 -44 0 -55 -5 -86 -34z m125 -29 c44 -33 17
-107 -40 -107 -32 0 -71 33 -71 60 0 47 72 77 111 47z"/>
<path d="M2996 263 c-3 -26 -3 -75 0 -110 6 -52 10 -63 25 -63 14 0 19 7 19
30 0 20 5 30 15 30 15 0 55 -38 55 -52 0 -4 11 -8 25 -8 30 0 30 3 8 40 -15
27 -15 29 5 55 25 31 27 44 11 78 -15 32 -49 47 -108 47 l-48 0 -7 -47z m112
-30 c4 -30 -45 -45 -64 -19 -20 28 -6 48 30 44 23 -2 32 -9 34 -25z"/>
<path d="M3265 216 c-4 -53 -5 -102 -1 -111 8 -22 151 -22 160 1 10 26 -3 34
-54 34 -27 0 -51 4 -54 8 -9 16 10 30 44 34 23 2 36 9 38 20 3 13 -6 17 -40
20 -30 2 -43 7 -43 18 0 11 14 16 50 20 42 4 50 8 50 25 0 18 -8 20 -72 23
l-71 3 -7 -95z"/>
<path d="M743 228 c-40 -11 -47 -21 -25 -40 41 -36 109 -25 101 17 -5 24 -37
34 -76 23z"/>
<path d="M602 221 c-8 -5 -12 -17 -10 -27 4 -26 60 -31 83 -8 16 17 16 18 -1
31 -20 15 -53 17 -72 4z"/>
<path d="M3845 221 c-12 -12 -3 -41 16 -51 15 -9 28 -9 49 0 16 7 46 9 71 5
49 -7 86 11 76 37 -4 13 -24 16 -107 15 -55 0 -103 -3 -105 -6z"/>
</g>
</svg>
